<svg aria-hidden="true" style="position: absolute; width: 0; height: 0; overflow: hidden;" version="1.1" xmlns="http://www.w3.org/2000/svg" xmlns:xlink="http://www.w3.org/1999/xlink">
<defs>
<symbol id="icon-key" viewBox="0 0 20 20">
<path d="M17.691 4.725c-0.503-2.977-3.22-4.967-6.069-4.441s-5.256 2.816-4.753 5.795c0.107 0.641 0.408 1.644 0.763 2.365l-5.175 7.723c-0.191 0.285-0.299 0.799-0.242 1.141l0.333 1.971c0.058 0.342 0.372 0.572 0.7 0.514l1.516-0.281c0.328-0.059 0.744-0.348 0.924-0.639l2.047-3.311 0.018-0.022 1.386-0.256 2.39-3.879c0.785 0.139 1.912 0.092 2.578-0.031 2.848-0.526 4.087-3.67 3.584-6.649zM15.166 6.252c-0.784 1.17-1.584 0.346-2.703-0.475-1.119-0.818-2.135-1.322-1.352-2.492s2.326-1.455 3.447-0.635c1.12 0.819 1.391 2.432 0.608 3.602z"></path>
</symbol>
<symbol id="icon-chat" viewBox="0 0 20 20">
<path d="M5.8 12.2v-6.2h-3.8c-1.1 0-2 0.9-2 2v6c0 1.1 0.9 2 2 2h1v3l3-3h5c1.1 0 2-0.9 2-2v-1.82c-0.064 0.014-0.132 0.021-0.2 0.021l-7-0.001zM18 1h-9c-1.1 0-2 0.9-2 2v8h7l3 3v-3h1c1.1 0 2-0.899 2-2v-6c0-1.1-0.9-2-2-2z"></path>
</symbol>
<symbol id="icon-location-pin" viewBox="0 0 20 20">
<path d="M10 2.009c-2.762 0-5 2.229-5 4.99 0 4.774 5 11 5 11s5-6.227 5-11c0-2.76-2.238-4.99-5-4.99zM10 9.76c-1.492 0-2.7-1.209-2.7-2.7s1.208-2.7 2.7-2.7c1.49 0 2.699 1.209 2.699 2.7s-1.209 2.7-2.699 2.7z"></path>
</symbol>
<symbol id="icon-map" viewBox="0 0 20 20">
<path d="M19.447 3.718l-6-3c-0.281-0.141-0.613-0.141-0.895 0l-5.63 2.815-5.606-1.869c-0.306-0.102-0.64-0.051-0.901 0.138s-0.415 0.49-0.415 0.811v13.001c0 0.379 0.214 0.725 0.553 0.894l6 3c0.141 0.070 0.294 0.106 0.447 0.106s0.307-0.035 0.447-0.106l5.63-2.814 5.606 1.869c0.305 0.1 0.64 0.049 0.901-0.139s0.415-0.49 0.415-0.81v-13.002c0.001-0.379-0.213-0.725-0.552-0.894zM8 5.231l4-2v11.763l-4 2v-11.763zM2 4l4 1.333v11.661l-4-2v-10.994zM18 16.227l-4-1.334v-11.662l4 2v10.996z"></path>
</symbol>
<symbol id="icon-chevron-thin-right" viewBox="0 0 20 20">
<path d="M13.25 10l-7.141-7.42c-0.268-0.27-0.268-0.707 0-0.979 0.268-0.27 0.701-0.27 0.969 0l7.83 7.908c0.268 0.271 0.268 0.709 0 0.979l-7.83 7.908c-0.268 0.271-0.701 0.27-0.969 0s-0.268-0.707 0-0.979l7.141-7.417z"></path>
</symbol>
<symbol id="icon-coins" viewBox="0 0 32 32">
<path d="M28.5 23h-12.246c0.359-0.619 0.634-1.29 0.816-2h11.43c0.553 0 1 0.447 1 1 0 0.552-0.447 1-1 1zM28.5 20h-11.236c0.041-0.328 0.069-0.661 0.069-1 0-0.34-0.028-0.672-0.069-1h11.236c0.553 0 1 0.447 1 1 0 0.552-0.447 1-1 1zM28.5 17h-11.43c-0.183-0.71-0.457-1.381-0.816-2h12.246c0.553 0 1 0.447 1 1 0 0.552-0.447 1-1 1zM28.5 14h-12.928c-0.65-0.811-1.453-1.493-2.369-2h15.297c0.553 0 1 0.447 1 1 0 0.552-0.447 1-1 1zM28.5 11h-16c-0.553 0-1-0.448-1-1 0-0.553 0.447-1 1-1h16c0.553 0 1 0.447 1 1 0 0.552-0.447 1-1 1zM28.5 8h-16c-0.553 0-1-0.448-1-1 0-0.553 0.447-1 1-1h16c0.553 0 1 0.447 1 1 0 0.552-0.447 1-1 1zM16.5 19c0 3.866-3.135 7-7 7s-7-3.134-7-7 3.134-7 7-7c3.865 0 7 3.134 7 7zM11.978 19.761c-0.101-0.239-0.231-0.447-0.394-0.624s-0.348-0.329-0.556-0.456c-0.208-0.127-0.42-0.24-0.637-0.341-0.217-0.1-0.429-0.194-0.637-0.284-0.208-0.089-0.395-0.185-0.559-0.287s-0.296-0.219-0.394-0.35-0.147-0.286-0.147-0.466c0-0.12 0.022-0.234 0.065-0.342 0.044-0.107 0.11-0.2 0.2-0.277 0.089-0.076 0.201-0.137 0.334-0.18 0.133-0.044 0.29-0.065 0.469-0.065 0.229 0 0.439 0.027 0.631 0.083 0.191 0.057 0.36 0.118 0.506 0.187 0.146 0.068 0.269 0.131 0.369 0.189s0.173 0.086 0.219 0.086 0.082-0.012 0.109-0.037c0.026-0.025 0.048-0.064 0.062-0.119 0.015-0.054 0.024-0.123 0.031-0.206 0.006-0.084 0.009-0.187 0.009-0.308 0-0.108-0.002-0.199-0.006-0.271s-0.012-0.134-0.021-0.182c-0.011-0.048-0.023-0.087-0.037-0.116-0.016-0.029-0.043-0.064-0.085-0.105s-0.127-0.094-0.256-0.155c-0.129-0.062-0.277-0.118-0.443-0.167-0.167-0.050-0.346-0.089-0.537-0.118-0.039-0.006-0.079-0.004-0.118-0.009v-1.034h-0.984v1.034c-0.181 0.024-0.356 0.060-0.526 0.109-0.331 0.096-0.618 0.24-0.862 0.434s-0.438 0.438-0.581 0.73c-0.144 0.294-0.215 0.634-0.215 1.021 0 0.337 0.050 0.627 0.149 0.868s0.23 0.451 0.391 0.628 0.342 0.328 0.546 0.455c0.204 0.128 0.415 0.241 0.631 0.341s0.427 0.194 0.631 0.284 0.386 0.186 0.546 0.287c0.161 0.103 0.291 0.219 0.391 0.35 0.1 0.132 0.15 0.289 0.15 0.472 0 0.159-0.029 0.303-0.087 0.433s-0.143 0.237-0.253 0.325-0.244 0.155-0.402 0.203c-0.159 0.048-0.337 0.072-0.538 0.072-0.304 0-0.572-0.034-0.803-0.103s-0.43-0.145-0.597-0.229c-0.167-0.083-0.303-0.158-0.409-0.228-0.106-0.068-0.188-0.103-0.247-0.103-0.042 0-0.079 0.012-0.109 0.034-0.032 0.023-0.057 0.062-0.075 0.116-0.019 0.055-0.032 0.125-0.041 0.213s-0.013 0.196-0.013 0.325c0 0.192 0.012 0.339 0.034 0.441 0.023 0.103 0.062 0.181 0.116 0.234s0.142 0.115 0.265 0.186 0.276 0.137 0.459 0.201c0.183 0.063 0.395 0.118 0.634 0.164 0.239 0.045 0.499 0.067 0.778 0.067 0.012 0 0.023-0.002 0.036-0.002v0.963h0.983v-1.092c0.047-0.012 0.097-0.018 0.143-0.031 0.362-0.108 0.679-0.27 0.95-0.484s0.485-0.481 0.644-0.802c0.158-0.321 0.236-0.693 0.236-1.118 0.001-0.323-0.049-0.604-0.148-0.844zM15.572 24h12.928c0.553 0 1 0.447 1 1 0 0.552-0.447 1-1 1h-15.297c0.916-0.507 1.719-1.189 2.369-2z"></path>
</symbol>
<symbol id="icon-notebook-text" viewBox="0 0 32 32">
<path d="M23.003 4c0 0-0.878 0-1.003 0v2h-1v-2h-3v2h-1v-2h-3v2h-1v-2h-3v2h-1v-2c-0.125 0-1.003 0-1.003 0-1.103 0-1.997 0.891-1.997 2.003v20.994c0 1.106 0.891 2.003 1.997 2.003h15.006c1.103 0 1.997-0.891 1.997-2.003v-20.994c0-1.106-0.891-2.003-1.997-2.003zM22 25h-13v-1h13v1zM22 22h-13v-1h13v1zM22 19h-13v-1h13v1zM22 16h-13v-1h13v1zM22 13h-13v-1h13v1zM22 10h-13v-1h13v1z"></path>
<path d="M9 2h1v2h-1v-2z"></path>
<path d="M13 2h1v2h-1v-2z"></path>
<path d="M17 2h1v2h-1v-2z"></path>
<path d="M21 2h1v2h-1v-2z"></path>
</symbol>
<symbol id="icon-star" viewBox="0 0 20 20">
<path d="M10 1.3l2.388 6.722h6.412l-5.232 3.948 1.871 6.928-5.439-4.154-5.438 4.154 1.87-6.928-5.233-3.948h6.412l2.389-6.722z"></path>
</symbol>
<symbol id="icon-bookmark" viewBox="0 0 20 20">
<path d="M14 2v17l-4-4-4 4v-17c0-0.553 0.585-1.020 1-1h6c0.689-0.020 1 0.447 1 1z"></path>
</symbol>
<symbol id="icon-users" viewBox="0 0 36 32">
<path d="M24 24.082v-1.649c2.203-1.241 4-4.337 4-7.432 0-4.971 0-9-6-9s-6 4.029-6 9c0 3.096 1.797 6.191 4 7.432v1.649c-6.784 0.555-12 3.888-12 7.918h28c0-4.030-5.216-7.364-12-7.918z"></path>
<path d="M10.225 24.854c1.728-1.13 3.877-1.989 6.243-2.513-0.47-0.556-0.897-1.176-1.265-1.844-0.95-1.726-1.453-3.627-1.453-5.497 0-2.689 0-5.228 0.956-7.305 0.928-2.016 2.598-3.265 4.976-3.734-0.529-2.39-1.936-3.961-5.682-3.961-6 0-6 4.029-6 9 0 3.096 1.797 6.191 4 7.432v1.649c-6.784 0.555-12 3.888-12 7.918h8.719c0.454-0.403 0.956-0.787 1.506-1.146z"></path>
</symbol>
<symbol id="icon-magnifying-glass" viewBox="0 0 20 20">
<path d="M17.545 15.467l-3.779-3.779c0.57-0.935 0.898-2.035 0.898-3.21 0-3.417-2.961-6.377-6.378-6.377s-6.186 2.769-6.186 6.186c0 3.416 2.961 6.377 6.377 6.377 1.137 0 2.2-0.309 3.115-0.844l3.799 3.801c0.372 0.371 0.975 0.371 1.346 0l0.943-0.943c0.371-0.371 0.236-0.84-0.135-1.211zM4.004 8.287c0-2.366 1.917-4.283 4.282-4.283s4.474 2.107 4.474 4.474c0 2.365-1.918 4.283-4.283 4.283s-4.473-2.109-4.473-4.474z"></path>
</symbol>
<symbol id="icon-home" viewBox="0 0 20 20">
<path d="M18.672 11h-1.672v6c0 0.445-0.194 1-1 1h-4v-6h-4v6h-4c-0.806 0-1-0.555-1-1v-6h-1.672c-0.598 0-0.47-0.324-0.060-0.748l8.024-8.032c0.195-0.202 0.451-0.302 0.708-0.312 0.257 0.010 0.513 0.109 0.708 0.312l8.023 8.031c0.411 0.425 0.539 0.749-0.059 0.749z"></path>
</symbol>
<symbol id="icon-user-plus" viewBox="0 0 32 32">
<path d="M12 23c0-4.726 2.996-8.765 7.189-10.319 0.509-1.142 0.811-2.411 0.811-3.681 0-4.971 0-9-6-9s-6 4.029-6 9c0 3.096 1.797 6.191 4 7.432v1.649c-6.784 0.555-12 3.888-12 7.918h12.416c-0.271-0.954-0.416-1.96-0.416-3z"></path>
<path d="M23 14c-4.971 0-9 4.029-9 9s4.029 9 9 9c4.971 0 9-4.029 9-9s-4.029-9-9-9zM28 24h-4v4h-2v-4h-4v-2h4v-4h2v4h4v2z"></path>
</symbol>
<symbol id="icon-user-minus" viewBox="0 0 32 32">
<path d="M12 23c0-4.726 2.996-8.765 7.189-10.319 0.509-1.142 0.811-2.411 0.811-3.681 0-4.971 0-9-6-9s-6 4.029-6 9c0 3.096 1.797 6.191 4 7.432v1.649c-6.784 0.555-12 3.888-12 7.918h12.416c-0.271-0.954-0.416-1.96-0.416-3z"></path>
<path d="M23 14c-4.971 0-9 4.029-9 9s4.029 9 9 9c4.971 0 9-4.029 9-9s-4.029-9-9-9zM28 24h-10v-2h10v2z"></path>
</symbol>
<symbol id="icon-user-check" viewBox="0 0 32 32">
<path d="M30 19l-9 9-3-3-2 2 5 5 11-11z"></path>
<path d="M14 24h10v-3.598c-2.101-1.225-4.885-2.066-8-2.321v-1.649c2.203-1.242 4-4.337 4-7.432 0-4.971 0-9-6-9s-6 4.029-6 9c0 3.096 1.797 6.191 4 7.432v1.649c-6.784 0.555-12 3.888-12 7.918h14v-2z"></path>
</symbol>
<symbol id="icon-exit" viewBox="0 0 32 32">
<path d="M24 20v-4h-10v-4h10v-4l6 6zM22 18v8h-10v6l-12-6v-26h22v10h-2v-8h-16l8 4v18h8v-6z"></path>
</symbol>
</defs>
</svg>
